The.Last.Stand.2013.HDCAM.x264.AAC-BiGKATS

Source: 26K

Notes: I tweaked sat, brightness, contrast and sharpen.
 
http://www.imdb.com/title/tt1549920/

The leader of a drug cartel busts out of a courthouse and speeds to the Mexican border, where the only thing in his path is a sheriff and his inexperienced staff.

General
Complete name                            : The Last Stand 2013 HDCAM x264 AAC-BiGKATS.mp4
Format                                   : MPEG-4
Format profile                           : Base Media
Codec ID                                 : isom
File size                                : 1.42 GiB
Duration                                 : 1h 39mn
Overall bit rate mode                    : Variable
Overall bit rate                         : 2 050 Kbps
Encoded date                             : UTC 2013-01-28 02:22:09
Tagged date                              : UTC 2013-01-28 02:22:09

Video
ID                                       : 1
Format                                   : AVC
Format/Info                              : Advanced Video Codec
Format profile                           : High@L4.1
Format settings, CABAC                   : Yes
Format settings, ReFrames                : 3 frames
Codec ID                                 : avc1
Codec ID/Info                            : Advanced Video Coding
Duration                                 : 1h 39mn
Bit rate mode                            : Variable
Bit rate                                 : 1 916 Kbps
Maximum bit rate                         : 40.0 Mbps
Width                                    : 720 pixels
Height                                   : 288 pixels
Display aspect ratio                     : 2.500
Frame rate mode                          : Constant
Frame rate                               : 25.000 fps
Color space                              : YUV
Chroma subsampling                       : 4:2:0
Bit depth                                : 8 bits
Scan type                                : Progressive
Bits/(Pixel*Frame)                       : 0.370
Stream size                              : 1.33 GiB (93%)
Writing library                          : x264 core 129 r2245 bc13772

Audio
ID                                       : 2
Format                                   : AAC
Format/Info                              : Advanced Audio Codec
Format profile                           : LC
Codec ID                                 : 40
Duration                                 : 1h 39mn
Bit rate mode                            : Variable
Bit rate                                 : 132 Kbps
Maximum bit rate                         : 145 Kbps
Channel(s)                               : 2 channels
Channel positions                        : Front: L R
Sampling rate                            : 44.1 KHz
Compression mode                         : Lossy
Stream size                              : 93.0 MiB (6%)
Language                                 : English
Encoded date                             : UTC 2013-01-27 22:24:00
Tagged date                              : UTC 2013-01-28 02:24:41[/b]

Cast: Arnold Schwarzenegger, Forest Whitaker and Johnny Knoxville 

Plot: The leader of a drug cartel busts out of a courthouse and speeds to the 
Mexican border, where the only thing in his path is a sheriff and his inexperienced staff. 

Screens: 
 
http://www.shotpix.com/images/62953778449200017271.png
 
http://www.shotpix.com/images/40036862181376989090.png
 
http://www.shotpix.com/images/70100399852994736782.png
 
http://www.shotpix.com/images/13325883855732906813.png
 
http://www.shotpix.com/images/69869763088707907336.png